<svg width="42" height="42" viewBox="0 0 42 42" fill="none" xmlns="http://www.w3.org/2000/svg">
<path fill-rule="evenodd" clip-rule="evenodd" d="M20.9677 41.9355C32.5479 41.9355 41.9355 32.5479 41.9355 20.9677C41.9355 9.38758 32.5479 0 20.9677 0C9.38758 0 0 9.38758 0 20.9677C0 32.5479 9.38758 41.9355 20.9677 41.9355ZM24.8217 11.9851C26.6481 12.2939 28.3946 12.837 30.024 13.5719C30.0382 13.5775 30.0499 13.5881 30.057 13.6017C32.9441 17.7784 34.369 22.492 33.8365 27.9168C33.8353 27.9283 33.8316 27.9394 33.8257 27.9493C33.8198 27.9592 33.8119 27.9678 33.8025 27.9744C31.8659 29.3852 29.7049 30.4585 27.4106 31.149C27.3944 31.1538 27.3771 31.1536 27.3611 31.1482C27.3451 31.1429 27.3312 31.1327 27.3211 31.1192C26.8387 30.4578 26.3999 29.7614 26.0165 29.0297C26.0113 29.0196 26.0083 29.0086 26.0077 28.9972C26.0071 28.9859 26.0089 28.9745 26.0131 28.9639C26.0172 28.9534 26.0235 28.9438 26.0317 28.9358C26.0398 28.9279 26.0495 28.9218 26.0602 28.9179C26.7556 28.6602 27.418 28.3503 28.0549 27.9839C28.0662 27.9772 28.0757 27.9677 28.0825 27.9564C28.0893 27.9451 28.0932 27.9323 28.0939 27.9191C28.0945 27.9059 28.0919 27.8928 28.0862 27.8809C28.0805 27.8689 28.0719 27.8586 28.0613 27.8508C27.926 27.7518 27.7929 27.6485 27.6651 27.5441C27.6534 27.5348 27.6393 27.529 27.6244 27.5273C27.6095 27.5256 27.5945 27.5281 27.581 27.5345C23.4479 29.4131 18.9186 29.4131 14.7365 27.5345C14.723 27.5284 14.7081 27.5262 14.6935 27.5281C14.6788 27.53 14.6649 27.5359 14.6534 27.5452C14.5256 27.6485 14.3915 27.7518 14.2573 27.8508C14.2467 27.8588 14.2383 27.8692 14.2328 27.8813C14.2273 27.8933 14.2248 27.9065 14.2257 27.9197C14.2265 27.9329 14.2306 27.9457 14.2376 27.9569C14.2446 27.9681 14.2543 27.9774 14.2658 27.9839C14.9049 28.3473 15.5714 28.6599 16.2594 28.919C16.27 28.9227 16.2798 28.9287 16.2879 28.9366C16.296 28.9444 16.3024 28.9539 16.3065 28.9644C16.3106 28.9749 16.3125 28.9862 16.3119 28.9974C16.3113 29.0087 16.3083 29.0197 16.3031 29.0297C15.927 29.7618 15.4903 30.4611 14.9974 31.1202C14.987 31.1333 14.9729 31.143 14.957 31.1479C14.941 31.1528 14.9239 31.1528 14.908 31.1479C12.6176 30.4555 10.4601 29.3827 8.52567 27.9744C8.51649 27.9673 8.50882 27.9585 8.50315 27.9485C8.49747 27.9384 8.4939 27.9273 8.49266 27.9158C8.04644 23.2236 8.95485 18.4717 12.269 13.5996C12.2772 13.5867 12.2891 13.5767 12.3031 13.5708C13.9335 12.8349 15.6801 12.2918 17.5054 11.9829C17.5219 11.9803 17.5388 11.9828 17.5538 11.99C17.5688 11.9973 17.5813 12.0089 17.5895 12.0234C17.8327 12.4475 18.0521 12.8848 18.2466 13.3333C20.1837 13.0439 22.153 13.0439 24.09 13.3333C24.2647 12.9286 24.5139 12.4164 24.7375 12.0234C24.7458 12.0091 24.7584 11.9977 24.7735 11.9908C24.7886 11.984 24.8054 11.982 24.8217 11.9851ZM14.6311 22.5239C14.6311 23.9201 15.6694 25.0585 16.9282 25.0585C18.2072 25.0585 19.2253 23.9211 19.2253 22.5239C19.2455 21.1363 18.2168 19.9893 16.9282 19.9893C15.6492 19.9893 14.6311 21.1267 14.6311 22.5239ZM23.1241 22.5239C23.1241 23.9201 24.1614 25.0585 25.4212 25.0585C26.7109 25.0585 27.7184 23.9211 27.7184 22.5239C27.7386 21.1363 26.7098 19.9893 25.4212 19.9893C24.1412 19.9893 23.1241 21.1267 23.1241 22.5239Z" fill="white"/>
</svg>
