<svg width="42" height="42" viewBox="0 0 42 42" fill="none" xmlns="http://www.w3.org/2000/svg">
<path fill-rule="evenodd" clip-rule="evenodd" d="M20.999 41.9355C32.5792 41.9355 41.9667 32.5479 41.9667 20.9677C41.9667 9.38758 32.5792 0 20.999 0C9.41883 0 0.03125 9.38758 0.03125 20.9677C0.03125 32.5479 9.41883 41.9355 20.999 41.9355ZM17.4062 21.2513C17.4062 19.4303 18.8923 17.9442 20.7133 17.9442C22.5343 17.9442 24.0204 19.4303 24.0204 21.2513C24.0204 23.0723 22.5343 24.5584 20.7133 24.5584C18.8923 24.5584 17.4062 23.0723 17.4062 21.2513ZM30.6326 20.7503C30.6324 20.9172 30.6322 21.0841 30.6322 21.2513C30.6322 21.4382 30.6325 21.6249 30.6328 21.8115C30.6345 22.9915 30.6363 24.1645 30.5677 25.3449C30.4908 26.9327 30.1311 28.3394 28.9675 29.503C27.8064 30.6641 26.3972 31.0263 24.8094 31.1032C23.6092 31.1707 22.4167 31.1694 21.2167 31.1681C21.0499 31.1679 20.8829 31.1677 20.7158 31.1677C20.549 31.1677 20.3823 31.1679 20.2158 31.1681C19.0174 31.1694 17.8246 31.1707 16.6222 31.1032C15.0344 31.0263 13.6276 30.6666 12.4641 29.503C11.303 28.3419 10.9407 26.9327 10.8638 25.3449C10.7963 24.1447 10.7976 22.9502 10.799 21.7514C10.7991 21.5848 10.7993 21.4181 10.7993 21.2513C10.7993 21.0845 10.7991 20.9178 10.799 20.7512C10.7976 19.5529 10.7963 18.3601 10.8638 17.1577C10.9407 15.5699 11.3005 14.1632 12.4641 12.9996C13.6252 11.8385 15.0344 11.4763 16.6222 11.3994C17.8223 11.3318 19.0148 11.3332 20.2148 11.3345C20.3816 11.3347 20.5486 11.3349 20.7158 11.3349C20.8826 11.3349 21.0493 11.3347 21.2158 11.3345C22.4142 11.3332 23.607 11.3318 24.8094 11.3994C26.3972 11.4763 27.8039 11.836 28.9675 12.9996C30.1286 14.1607 30.4908 15.5699 30.5677 17.1577C30.6352 18.3578 30.6339 19.5504 30.6326 20.7503ZM15.6248 21.2513C15.6248 24.0672 17.8974 26.3398 20.7133 26.3398C23.5292 26.3398 25.8018 24.0672 25.8018 21.2513C25.8018 18.4354 23.5292 16.1628 20.7133 16.1628C17.8974 16.1628 15.6248 18.4354 15.6248 21.2513ZM24.8218 15.9544C24.8218 16.6119 25.3527 17.1428 26.0102 17.1428C26.1663 17.143 26.3209 17.1124 26.4652 17.0527C26.6094 16.9931 26.7405 16.9056 26.8509 16.7952C26.9613 16.6848 27.0488 16.5537 27.1085 16.4094C27.1681 16.2652 27.1987 16.1105 27.1985 15.9544C27.1985 15.297 26.6676 14.766 26.0102 14.766C25.3527 14.766 24.8218 15.297 24.8218 15.9544Z" fill="white"/>
</svg>
