<svg width="42" height="42" viewBox="0 0 42 42" fill="none" xmlns="http://www.w3.org/2000/svg">
<path d="M21.0322 0C9.45451 0 0.0644531 9.39005 0.0644531 20.9677C0.0644531 32.5454 9.45451 41.9355 21.0322 41.9355C32.6099 41.9355 41.9999 32.5454 41.9999 20.9677C41.9999 9.39005 32.6151 0 21.0322 0ZM10.4085 21.6719L10.4977 21.5304L15.9545 12.9965C15.9728 12.9685 15.9983 12.9458 16.0283 12.931C16.0583 12.9161 16.0917 12.9096 16.1251 12.9121C16.1585 12.9146 16.1906 12.926 16.2181 12.9452C16.2455 12.9643 16.2674 12.9905 16.2813 13.021C17.1899 15.0636 17.9796 17.6042 17.6092 19.1855C17.4555 19.8355 17.0239 20.7161 16.5364 21.5304C16.4738 21.6495 16.4056 21.7655 16.3319 21.8781C16.3143 21.9032 16.2907 21.9235 16.2632 21.9373C16.2358 21.951 16.2053 21.9577 16.1747 21.9567H10.571C10.5376 21.9572 10.5046 21.9487 10.4757 21.932C10.4467 21.9153 10.4228 21.891 10.4065 21.8618C10.3902 21.8326 10.3821 21.7995 10.383 21.7661C10.384 21.7327 10.394 21.7001 10.412 21.6719H10.4085ZM34.7206 24.6074C34.7211 24.6447 34.7105 24.6813 34.6903 24.7127C34.6702 24.7441 34.6412 24.7688 34.6071 24.7839C34.1825 24.9638 32.7374 25.6313 32.1364 26.4648C30.6022 28.6 29.4315 31.6543 26.8106 31.6543H15.8829C14.9602 31.6529 14.0469 31.4698 13.1951 31.1152C12.3433 30.7607 11.5697 30.2418 10.9185 29.5882C10.2673 28.9346 9.75127 28.159 9.39994 27.3059C9.04861 26.4528 8.86884 25.5388 8.8709 24.6161V24.4903C8.8709 24.389 8.95478 24.3051 9.05961 24.3051H15.149C15.2713 24.3051 15.3587 24.4152 15.3499 24.5358C15.3045 24.9306 15.3796 25.3378 15.5684 25.7065C15.9283 26.4403 16.6796 26.8981 17.4886 26.8981H20.5045V24.5445H17.5201C17.4851 24.5441 17.4509 24.5342 17.4212 24.5158C17.3914 24.4975 17.3672 24.4713 17.3512 24.4402C17.3352 24.4091 17.328 24.3743 17.3304 24.3394C17.3327 24.3045 17.3446 24.2709 17.3646 24.2422L17.4747 24.0849C17.7542 23.6813 18.1579 23.061 18.5597 22.3516C18.8323 21.8729 19.0979 21.3626 19.3111 20.8489C19.353 20.7581 19.3862 20.662 19.4247 20.5694C19.4823 20.4051 19.5417 20.2513 19.5837 20.0993C19.6248 19.9704 19.6627 19.8405 19.6973 19.7097C19.7968 19.2729 19.8388 18.8116 19.8388 18.3345C19.8388 18.1458 19.8318 17.9484 19.8143 17.7632C19.8056 17.5587 19.7794 17.3526 19.7549 17.1481C19.7354 16.9652 19.7074 16.7833 19.671 16.603C19.624 16.3284 19.5669 16.0556 19.4998 15.7852L19.4753 15.6804C19.4229 15.4917 19.3775 15.3134 19.3181 15.1265C19.1517 14.5523 18.9605 13.9857 18.745 13.4281C18.6699 13.2184 18.5871 13.0115 18.4968 12.8078C18.371 12.4968 18.2417 12.2155 18.1247 11.9516C18.0664 11.8386 18.0116 11.7238 17.9604 11.6074C17.9036 11.4818 17.8436 11.3577 17.7804 11.2352C17.7385 11.1426 17.6878 11.0535 17.6546 10.9696L17.286 10.2917C17.2353 10.1991 17.3192 10.0855 17.4205 10.1152L19.727 10.739H19.7444L20.0467 10.8263L20.3822 10.9207L20.5045 10.9539V9.58575C20.5045 8.92352 21.0322 8.3871 21.6909 8.3871C21.8465 8.38668 22.0005 8.41773 22.1437 8.47839C22.287 8.53905 22.4165 8.62805 22.5244 8.74005C22.7475 8.96508 22.873 9.26888 22.8739 9.58575V11.6196L23.1202 11.6878C23.1377 11.6965 23.1587 11.7052 23.1744 11.7175C23.2338 11.7594 23.3212 11.8258 23.4313 11.9097C23.5186 11.9761 23.6112 12.0599 23.7196 12.1491C24.0646 12.4302 24.3992 12.7239 24.7225 13.0297C25.0964 13.3774 25.5158 13.7845 25.9177 14.2371C26.0313 14.3664 26.1396 14.4922 26.2532 14.632C26.3615 14.77 26.4838 14.9046 26.5852 15.0374C26.7232 15.2191 26.8647 15.4078 26.9958 15.6035C27.0534 15.6961 27.1251 15.7922 27.1792 15.8848C27.347 16.1329 27.4903 16.388 27.6283 16.6449C27.6877 16.762 27.7454 16.8913 27.796 17.0171C27.9516 17.3613 28.0739 17.709 28.149 18.062C28.1739 18.1369 28.1908 18.2142 28.1997 18.2926V18.3101C28.2241 18.4097 28.2329 18.5198 28.2416 18.6316C28.2908 19.148 28.2276 19.669 28.0564 20.1587C28.0022 20.3055 27.9516 20.4558 27.8852 20.6026C27.7541 20.8996 27.6038 21.2019 27.4239 21.4797C27.3645 21.5845 27.2928 21.6929 27.2264 21.7977C27.1513 21.9078 27.0709 22.0126 27.0045 22.1122C26.9084 22.2445 26.8076 22.3733 26.7022 22.4984C26.6096 22.6242 26.517 22.75 26.4122 22.8636C26.2706 23.0348 26.1326 23.1956 25.9841 23.3493C25.9002 23.4507 25.8093 23.5555 25.7115 23.6464C25.6206 23.7512 25.5228 23.8438 25.4389 23.9277C25.2921 24.0745 25.1768 24.1845 25.0755 24.2806L24.8361 24.4938C24.8028 24.5273 24.7575 24.5461 24.7103 24.5462H22.8739V26.8981H25.1838C25.6993 26.8981 26.1903 26.7164 26.5886 26.3774C26.7232 26.2604 27.3138 25.7484 28.0145 24.9761C28.0373 24.9498 28.0679 24.9314 28.1018 24.9237L34.4795 23.0767C34.5075 23.0687 34.537 23.0672 34.5657 23.0724C34.5944 23.0776 34.6214 23.0894 34.6448 23.1068C34.6682 23.1242 34.6872 23.1468 34.7003 23.1729C34.7135 23.1989 34.7204 23.2276 34.7206 23.2567V24.6074Z" fill="white"/>
</svg>
