<svg width="43" height="42" viewBox="0 0 43 42" fill="none" xmlns="http://www.w3.org/2000/svg">
<path d="M21.4834 0C9.90431 0 0.515625 9.38868 0.515625 20.9677C0.515625 32.5468 9.90431 41.9355 21.4834 41.9355C33.0624 41.9355 42.4511 32.5468 42.4511 20.9677C42.4511 9.38868 33.0624 0 21.4834 0ZM31.5601 15.8054C31.5741 16.0253 31.5741 16.2547 31.5741 16.4793C31.5741 23.35 26.3415 31.2644 16.7797 31.2644C13.8311 31.2644 11.0978 30.4079 8.79508 28.9336C9.2163 28.9804 9.61881 28.9991 10.0494 28.9991C12.4832 28.9991 14.7203 28.1754 16.5035 26.7807C14.2195 26.7339 12.3006 25.2362 11.6454 23.1768C12.4457 23.2939 13.1665 23.2939 13.9902 23.0832C12.8142 22.8443 11.7571 22.2056 10.9986 21.2756C10.2402 20.3457 9.82702 19.1818 9.82942 17.9817V17.9162C10.5174 18.3047 11.3271 18.5433 12.1743 18.5761C11.4621 18.1015 10.8781 17.4585 10.474 16.7041C10.0698 15.9498 9.85808 15.1073 9.8575 14.2515C9.8575 13.2827 10.1102 12.3981 10.5642 11.6305C11.8696 13.2375 13.4985 14.5517 15.345 15.4879C17.1915 16.4241 19.2144 16.9612 21.2821 17.0644C20.5473 13.5307 23.187 10.6711 26.3602 10.6711C27.8579 10.6711 29.2059 11.2982 30.156 12.3092C31.3307 12.0892 32.454 11.6493 33.4556 11.0595C33.0671 12.2624 32.2527 13.278 31.1716 13.9192C32.22 13.8069 33.2309 13.5167 34.167 13.1095C33.4603 14.1485 32.5757 15.0706 31.5601 15.8054Z" fill="white"/>
</svg>
